{
  "accessors": [
    {
      "bufferView": 0,
      "componentType": 5125,
      "count": 384,
      "type": "SCALAR"
    },
    {
      "bufferView": 1,
      "componentType": 5126,
      "count": 132,
      "min": [
        -0.19999998807907105,
        -0.19999998807907105,
        -0.19999998807907105
      ],
      "max": [
        0.19999998807907105,
        0.19999998807907105,
        0.19999998807907105
      ],
      "type": "VEC3"
    },
    {
      "bufferView": 2,
      "componentType": 5126,
      "count": 132,
      "type": "VEC3"
    },
    {
      "bufferView": 3,
      "componentType": 5126,
      "count": 132,
      "type": "VEC2"
    }
  ],
  "asset": {
    "version": "2.0"
  },
  "bufferViews": [
    {
      "buffer": 0,
      "byteLength": 1536,
      "target": 34963
    },
    {
      "buffer": 1,
      "byteLength": 1584,
      "target": 34962
    },
    {
      "buffer": 1,
      "byteLength": 1584,
      "byteOffset": 1584,
      "target": 34962
    },
    {
      "buffer": 1,
      "byteLength": 1056,
      "byteOffset": 3168,
      "target": 34962
    }
  ],
  "materials": [
    {
      "name": "Material",
      "doubleSided": true
    }
  ],
  "meshes": [
    {
      "primitives": [
        {
          "attributes": {
            "NORMAL": 2,
            "POSITION": 1,
            "TEXCOORD_0": 3
          },
          "indices": 0,
          "material": 0,
          "mode": 4
        }
      ],
      "name": "cylinder"
    }
  ],
  "nodes": [
    {
      "mesh": 0,
      "name": "cylinder"
    }
  ],
  "scene": 0,
  "scenes": [
    {
      "nodes": [
        0
      ]
    }
  ],
  "buffers": [
    {
      "byteLength": 1536,
      "uri": "data:application/octet-stream;base64,"
    },
    {
      "byteLength": 4224,
      "uri": "data:application/octet-stream;base64,"
    }
  ]
}
